<svg width="301" height="56" viewBox="0 0 301 56" fill="none" xmlns="http://www.w3.org/2000/svg">
<rect x="0.528884" y="1.44194" width="299" height="54" rx="1.5" transform="rotate(-0.0646689 0.528884 1.44194)" stroke="#000427" stroke-opacity="0.15"/>
<path d="M28.0678 35.9109C32.4861 35.9059 36.0637 32.3201 36.0588 27.9019C36.0538 23.4836 32.468 19.9059 28.0497 19.9109C23.6315 19.9159 20.0538 23.5016 20.0588 27.9199C20.0638 32.3382 23.6495 35.9159 28.0678 35.9109Z" stroke="#B3B4BE" stroke-width="2" stroke-linecap="round" stroke-linejoin="round"/>
<path d="M38.0701 37.8996L33.7151 33.5545" stroke="#B3B4BE" stroke-width="2" stroke-linecap="round" stroke-linejoin="round"/>
<path d="M59.0789 31.8368C59.08 32.842 58.7163 33.6263 57.9878 34.1896C57.2592 34.7529 56.27 35.0353 55.02 35.0367C53.6658 35.0382 52.6239 34.8649 51.8944 34.5168L51.8929 33.2356C52.3619 33.4329 52.8725 33.5886 53.4247 33.7026C53.9769 33.8165 54.5239 33.8732 55.0655 33.8726C55.9509 33.8716 56.6174 33.7042 57.065 33.3703C57.5125 33.0313 57.7359 32.5623 57.7353 31.9633C57.7348 31.5675 57.6537 31.2447 57.492 30.9949C57.3354 30.7398 57.0695 30.5057 56.6943 30.2926C56.3243 30.0795 55.7589 29.838 54.9982 29.568C53.9352 29.189 53.1743 28.7393 52.7154 28.219C52.2617 27.6987 52.0344 27.0192 52.0334 26.1807C52.0324 25.3005 52.3624 24.5996 53.0232 24.078C53.6841 23.5564 54.5588 23.295 55.6473 23.2938C56.7828 23.2925 57.8273 23.4997 58.7809 23.9153L58.3681 25.072C57.4249 24.6772 56.5081 24.4803 55.6174 24.4813C54.9143 24.4821 54.365 24.6338 53.9695 24.9363C53.574 25.2389 53.3766 25.6584 53.3772 26.1948C53.3776 26.5906 53.4509 26.9161 53.597 27.1711C53.7431 27.421 53.9882 27.6525 54.3322 27.8656C54.6814 28.0735 55.2129 28.3047 55.9267 28.5591C57.1251 28.9849 57.9486 29.4423 58.397 29.9313C58.8507 30.4204 59.078 31.0556 59.0789 31.8368ZM64.8403 35.0256C63.5747 35.0271 62.5742 34.6428 61.839 33.8728C61.1089 33.1028 60.7431 32.0329 60.7416 30.6631C60.74 29.2829 61.0773 28.1861 61.7535 27.3729C62.4349 26.5596 63.3485 26.1523 64.4943 26.151C65.5672 26.1498 66.4166 26.503 67.0424 27.2106C67.6682 27.9131 67.9817 28.8424 67.983 29.9986L67.984 30.819L62.0855 30.8256C62.1127 31.8308 62.3662 32.5935 62.8459 33.1138C63.3309 33.6341 64.0109 33.8938 64.8859 33.8928C65.8077 33.8917 66.719 33.698 67.6196 33.3116L67.6209 34.4678C67.1628 34.6662 66.7281 34.8074 66.3167 34.8911C65.9105 34.9801 65.4184 35.025 64.8403 35.0256ZM64.4799 27.237C63.7924 27.2377 63.2432 27.4623 62.8322 27.9107C62.4265 28.3591 62.1876 28.9791 62.1156 29.7709L66.5922 29.7658C66.5912 28.9481 66.4082 28.3233 66.0432 27.8915C65.6781 27.4544 65.157 27.2362 64.4799 27.237ZM75.4729 34.8574L75.2137 33.6389L75.1512 33.639C74.7247 34.1759 74.2981 34.541 73.8712 34.7342C73.4495 34.9222 72.921 35.0165 72.2856 35.0172C71.4366 35.0182 70.7697 34.8002 70.2848 34.3632C69.8052 33.9263 69.5649 33.3041 69.564 32.4969C69.562 30.7677 70.9438 29.8599 73.7094 29.7734L75.1624 29.7249L75.1618 29.1937C75.1611 28.5218 75.0147 28.0272 74.7227 27.7098C74.4358 27.3872 73.9747 27.2263 73.3393 27.227C72.6258 27.2278 71.8187 27.4474 70.9182 27.886L70.5186 26.8942C70.9402 26.6646 71.401 26.4844 71.9008 26.3536C72.4059 26.2228 72.911 26.1571 73.4162 26.1566C74.437 26.1554 75.1925 26.3811 75.6826 26.8337C76.1779 27.2863 76.4261 28.0125 76.4272 29.0125L76.4338 34.8563L75.4729 34.8574ZM72.5422 33.9466C73.3495 33.9457 73.982 33.7236 74.4399 33.2804C74.9029 32.8372 75.134 32.2171 75.1331 31.4203L75.1322 30.6468L73.8354 30.703C72.8042 30.7406 72.0596 30.9029 71.6016 31.1899C71.1488 31.4716 70.9227 31.912 70.9234 32.5109C70.9239 32.9797 71.0649 33.3363 71.3465 33.5808C71.6332 33.8253 72.0318 33.9472 72.5422 33.9466ZM83.0099 26.1301C83.3901 26.1297 83.7313 26.1606 84.0335 26.2227L83.8552 27.426C83.5009 27.3483 83.1884 27.3096 82.9175 27.3099C82.2248 27.3107 81.6314 27.5926 81.1372 28.1557C80.6483 28.7187 80.4043 29.4195 80.4052 30.2581L80.4104 34.8518L79.1135 34.8533L79.1039 26.2908L80.1742 26.2896L80.3244 27.8753L80.3869 27.8753C80.704 27.3176 81.0863 26.8875 81.5339 26.5849C81.9815 26.2823 82.4735 26.1307 83.0099 26.1301ZM89.0668 34.9983C87.8272 34.9997 86.8659 34.6206 86.1827 33.8609C85.5048 33.0961 85.165 32.0157 85.1634 30.6199C85.1618 29.1876 85.5043 28.0804 86.1909 27.2984C86.8828 26.5164 87.8667 26.1246 89.1427 26.1232C89.5542 26.1227 89.9657 26.1665 90.3773 26.2546C90.7888 26.3427 91.1119 26.4465 91.3464 26.566L90.9492 27.668C90.6626 27.5538 90.35 27.4604 90.0114 27.3878C89.6727 27.3101 89.3732 27.2714 89.1128 27.2717C87.3732 27.2736 86.5047 28.384 86.5072 30.6027C86.5084 31.6548 86.7202 32.4619 87.1427 33.0239C87.5704 33.5859 88.201 33.8664 89.0343 33.8655C89.7478 33.8647 90.4794 33.7102 91.2291 33.4021L91.2304 34.5505C90.6578 34.8481 89.9366 34.9973 89.0668 34.9983ZM99.1291 34.8307L99.1229 29.2916C99.1221 28.5937 98.9627 28.073 98.6446 27.7297C98.3265 27.3863 97.8289 27.215 97.1518 27.2157C96.2508 27.2167 95.5922 27.4623 95.1761 27.9523C94.7652 28.4424 94.5603 29.2447 94.5616 30.3593L94.5666 34.8358L93.2698 34.8373L93.2561 22.681L94.5529 22.6796L94.5571 26.3593C94.5576 26.802 94.5372 27.1692 94.4958 27.4609L94.5739 27.4608C94.8287 27.0491 95.1903 26.7257 95.6588 26.4908C96.1325 26.2507 96.6714 26.1303 97.2756 26.1296C98.3224 26.1285 99.1066 26.3776 99.628 26.877C100.155 27.3712 100.418 28.1599 100.42 29.2433L100.426 34.8292L99.1291 34.8307Z" fill="#000427" fill-opacity="0.3"/>
</svg>
