<svg width="155" height="21" viewBox="0 0 155 21" fill="none" xmlns="http://www.w3.org/2000/svg">
<g clip-path="url(#clip0_1_292)">
<path d="M9.80214 11.4717C8.82523 10.4436 8.87103 9.91582 9.74617 8.8677C11.2421 7.07413 11.2929 4.92535 10.3109 2.86412C9.36965 0.887948 7.60919 0.0924742 5.4315 0.119991C4.88199 0.119991 4.33248 0.119991 3.78043 0.119991C2.93326 0.119991 2.0861 0.142504 1.2364 0.119991C0.386692 0.0974772 0.0127201 0.52273 0 1.33071C0 7.40933 0 13.4871 0 19.5641C0 20.4021 0.4045 20.7623 1.24657 20.7623C2.72974 20.7623 4.21291 20.8048 5.69353 20.7623C7.98316 20.7173 9.7131 19.6741 10.634 17.6379C11.6186 15.4791 11.4939 13.2578 9.80214 11.4717ZM1.57984 8.2048C1.618 7.29176 1.57984 6.37621 1.57984 5.45317C1.57984 4.58015 1.60528 3.70212 1.57984 2.8316C1.54677 2.01112 1.83424 1.59337 2.73992 1.63839C3.75753 1.68842 4.77514 1.62339 5.79275 1.65841C7.87885 1.72595 9.27553 3.18682 9.30351 5.29807C9.33149 7.58694 7.96281 9.25543 5.90214 9.378C4.84637 9.44054 3.78551 9.3655 2.72974 9.41302C1.81644 9.45305 1.54677 9.02779 1.57984 8.2048ZM5.80802 19.2414C4.75224 19.2914 3.68884 19.2414 2.63052 19.2664C1.86732 19.2864 1.56458 18.9487 1.58493 18.2133C1.61037 17.1726 1.58493 16.132 1.58493 15.0914C1.58493 14.0508 1.58493 13.0077 1.58493 11.967C1.58493 11.2966 1.89021 10.9664 2.5771 10.9664C3.72191 10.9664 4.86673 10.8964 6.00899 11.0015C8.1994 11.2091 9.65204 13.0677 9.57063 15.4241C9.56414 16.4144 9.16929 17.364 8.46835 18.0751C7.76741 18.7863 6.81445 19.204 5.80802 19.2414Z" fill="#000427"/>
<path d="M129.641 18.9138C128.608 16.77 127.581 14.6237 126.522 12.4925C126.179 11.8046 126.212 11.4368 127.031 11.0816C129.746 9.91342 130.916 7.45446 130.315 4.5027C129.807 2.03624 127.581 0.330219 124.752 0.277688C123.439 0.252673 122.126 0.262679 120.811 0.277688C118.961 0.277688 118.847 0.387753 118.844 2.16381C118.844 4.95381 118.844 7.74297 118.844 10.5313C118.844 12.6142 118.844 14.6988 118.844 16.785C118.844 17.7856 118.844 18.7862 118.865 19.7868C118.865 20.2871 118.893 20.8825 119.605 20.885C120.368 20.885 120.401 20.2846 120.409 19.7193C120.409 19.3866 120.409 19.0539 120.409 18.7187C120.409 16.6775 120.439 14.6362 120.396 12.5975C120.378 11.7845 120.679 11.4468 121.49 11.4869C121.914 11.5091 122.339 11.5049 122.762 11.4744C123.81 11.3918 124.479 11.747 124.914 12.7726C125.678 14.5387 126.565 16.2422 127.405 17.9682C127.81 18.7937 128.206 19.6217 128.639 20.4322C128.858 20.8424 129.229 21.0601 129.697 20.8299C130.107 20.6273 130.135 20.2346 130.025 19.8543C129.923 19.5312 129.795 19.2166 129.641 18.9138ZM121.455 9.94344C120.714 9.96095 120.376 9.69329 120.406 8.92283C120.445 7.88722 120.406 6.8491 120.406 5.81098C120.406 4.89794 120.45 3.9849 120.394 3.07435C120.338 2.16381 120.648 1.76107 121.597 1.8061C122.818 1.86363 124.049 1.78108 125.265 1.87864C127.438 2.05375 128.827 3.70473 128.827 5.96357C128.827 8.10735 127.372 9.74582 125.243 9.89842C123.993 9.98847 122.721 9.91343 121.455 9.94344Z" fill="#000427"/>
<path d="M107.289 13.9058C105.486 9.63823 103.631 5.4007 101.784 1.14817C101.56 0.632865 101.423 -0.0350323 100.634 0.00249001C99.9294 0.0375109 99.8175 0.65788 99.6165 1.13817C98.1333 4.54269 96.8181 8.02477 95.1466 11.3417C93.7932 14.0383 93.5159 16.795 93.6482 19.6942C93.6915 20.5972 94.0603 20.9625 94.966 20.945C96.8715 20.9174 98.7821 20.945 100.685 20.945C102.588 20.945 104.501 20.945 106.404 20.945C106.966 20.945 107.651 20.9174 107.663 20.1945C107.694 18.0958 108.149 15.942 107.289 13.9058ZM106.195 18.9087C106.223 19.4591 105.687 19.5116 105.257 19.5116C102.163 19.5116 99.0721 19.5116 95.9785 19.5116C95.2153 19.5116 95.1161 19.0388 95.0983 18.4335C95.0449 16.5899 95.1848 14.8213 96.004 13.0853C97.4617 9.99094 98.7515 6.81655 100.118 3.67968C100.245 3.3845 100.329 3.0443 100.649 2.8767C101.092 3.05181 101.158 3.45454 101.303 3.78224C102.83 7.30183 104.356 10.8339 105.882 14.351C106.539 15.8469 106.122 17.3953 106.195 18.9187V18.9087Z" fill="#000427"/>
<path d="M154.913 19.5241C152.866 13.3638 150.813 7.20263 148.754 1.04063C148.612 0.615372 148.469 0.137588 147.844 0.167605C147.218 0.197623 147.129 0.700423 146.986 1.11317C146.401 2.80417 145.844 4.50519 145.284 6.2062C143.836 10.5971 142.394 14.9873 140.96 19.3765C140.784 19.9119 140.466 20.5998 141.303 20.8374C142.099 21.065 142.265 20.3621 142.448 19.8093C142.789 18.7812 143.14 17.7581 143.435 16.7175C143.636 16.012 144.017 15.6843 144.786 15.6968C146.775 15.7269 148.765 15.7344 150.754 15.6968C151.67 15.6818 152.14 16.0796 152.392 16.9151C152.728 18.0307 153.13 19.1264 153.517 20.227C153.667 20.6598 153.952 20.9525 154.463 20.8649C154.975 20.7774 155.01 20.4097 155.005 19.9394C154.985 19.7989 154.955 19.6601 154.913 19.5241ZM150.667 14.1734C148.802 14.1734 146.944 14.1734 145.094 14.1734C144.643 14.1734 144.33 14.0359 144.508 13.5055C145.567 10.292 146.626 7.07755 147.686 3.8623L148.121 3.89983L151.227 13.4805C151.393 13.9933 151.138 14.1734 150.667 14.1734Z" fill="#000427"/>
<path d="M35.3163 8.66776C35.3163 10.8741 35.3367 13.0804 35.3163 15.2867C35.2705 18.8138 33.042 20.9626 29.4829 20.9501C26.2036 20.9376 23.9318 18.6537 23.914 15.2592C23.8801 10.8032 23.8801 6.34888 23.914 1.89623C23.9267 1.25084 23.6443 0.232737 24.7026 0.232737C25.761 0.232737 25.4658 1.26335 25.4658 1.89623C25.504 6.30885 25.4862 10.7215 25.504 15.1341C25.504 17.7482 27.1322 19.4467 29.5744 19.4292C32.1439 19.4142 33.7645 17.7857 33.7848 15.1291C33.8204 10.7165 33.8153 6.30385 33.8306 1.89122C33.8272 1.59981 33.8391 1.30842 33.8662 1.0182C33.912 0.585447 34.0087 0.167698 34.5862 0.180206C35.1637 0.192713 35.2654 0.625471 35.2756 1.05072C35.3087 2.38152 35.3138 3.71231 35.3214 5.05311C35.3214 6.25382 35.3163 7.45954 35.3163 8.66776Z" fill="#000427"/>
<path d="M48.6545 10.4188C48.6545 8.66774 48.6138 6.9167 48.6545 5.16565C48.7086 3.90623 49.2215 2.70794 50.0995 1.78947C50.9776 0.871001 52.1622 0.29361 53.4373 0.162676C56.452 -0.185031 58.9985 1.30085 59.749 3.85237C59.8374 4.17202 59.8827 4.5017 59.8839 4.83296C59.9015 5.00199 59.8525 5.17125 59.747 5.30578C59.6414 5.44032 59.4873 5.52985 59.3165 5.55589C58.9095 5.64094 58.678 5.4058 58.5253 5.0806C58.4185 4.85547 58.3473 4.61282 58.2557 4.38269C57.4467 2.33397 55.8236 1.3809 53.6612 1.68858C51.5903 1.98126 50.2216 3.46714 50.1911 5.65344C50.1402 8.98293 50.1504 12.3149 50.1911 15.6469C50.2165 17.578 51.5649 19.0414 53.4983 19.3991C54.4194 19.5794 55.3754 19.4494 56.2122 19.03C57.049 18.6107 57.7177 17.9265 58.1107 17.0877C58.1437 17.0127 58.1666 16.9302 58.2073 16.8576C58.4948 16.3273 58.4236 15.2467 59.3801 15.6069C60.3367 15.9671 59.8889 16.8951 59.6345 17.5705C58.7136 20.0245 56.1136 21.3528 53.2134 20.8925C51.9867 20.7048 50.8627 20.1088 50.0292 19.2041C49.1957 18.2994 48.7033 17.1409 48.6342 15.9221C48.5858 15.009 48.6342 14.091 48.6342 13.1704V10.4188H48.6545Z" fill="#000427"/>
<path d="M71.5355 10.3535C71.5355 8.65002 71.4999 6.94401 71.5355 5.24049C71.5662 4.00069 72.042 2.81155 72.8787 1.88355C73.7154 0.955552 74.859 0.348545 76.1071 0.169974C79.1193 -0.250276 81.676 1.11554 82.5614 3.62203C82.6836 3.97602 82.7572 4.34451 82.7801 4.71768C82.803 5.11292 82.6606 5.46813 82.195 5.55568C81.7931 5.63072 81.5514 5.39058 81.3886 5.0829C81.2905 4.85259 81.2056 4.61708 81.1342 4.37748C80.3709 2.36128 78.6283 1.36068 76.4175 1.67837C74.5349 1.95103 73.1103 3.59451 73.0747 5.63573C73.0365 8.92269 73.0416 12.2096 73.0747 15.4966C73.0925 17.4503 74.4128 18.9987 76.2318 19.3414C78.4298 19.7416 80.3023 18.7836 81.0655 16.8624C81.1596 16.6298 81.2156 16.3846 81.3199 16.1545C81.4954 15.7467 81.7447 15.404 82.2688 15.5416C82.7929 15.6792 82.8361 16.132 82.7776 16.5572C82.6402 17.6436 82.1199 18.6482 81.3071 19.3964C79.4933 21.1024 77.3181 21.3651 75.059 20.5746C72.8584 19.8067 71.6525 18.1357 71.533 15.8418C71.4388 14.0157 71.5152 12.1821 71.5152 10.3535H71.5355Z" fill="#000427"/>
<path d="M105.134 17.373C105.15 17.7332 105.157 18.4061 105.134 18.4961C104.809 18.6262 104.147 18.6337 103.593 18.6412C103.149 18.662 102.704 18.6402 102.265 18.5762C102.17 18.1786 102.112 17.7733 102.092 17.3654C102.077 16.909 102.035 16.4538 101.967 16.0021C101.855 15.3117 101.329 15.1892 100.733 15.2067C100.138 15.2242 99.6419 15.4093 99.5783 16.1022C99.5579 16.3098 99.5528 16.5174 99.5401 16.7251C99.4969 17.4955 99.4867 18.3961 99.4205 18.4761C99.2501 18.6312 98.4615 18.6187 97.8433 18.6287C97.3345 18.6112 96.584 18.6587 96.3855 18.4811C96.2975 17.6727 96.2542 16.8602 96.2558 16.0472C96.3982 14.5062 97.5049 12.7352 98.2478 10.8491C98.8125 9.41822 99.4816 8.02739 100.125 6.62656C100.616 5.67099 100.616 4.93055 101.316 6.62656C102.387 9.15806 103.44 11.6971 104.524 14.2261C104.961 15.2367 105.081 16.1122 105.134 17.373Z" fill="#C99800"/>
</g>
<defs>
<clipPath id="clip0_1_292">
<rect width="155" height="21" fill="white"/>
</clipPath>
</defs>
</svg>
